<svg id="visual" viewBox="0 0 900 600" width="900" height="600" xmlns="http://www.w3.org/2000/svg" xmlns:xlink="http://www.w3.org/1999/xlink" version="1.1"><rect x="0" y="0" width="900" height="600" fill="#001220"></rect><defs><linearGradient id="grad1_0" x1="33.3%" y1="100%" x2="100%" y2="0%"><stop offset="20%" stop-color="#ff7c71" stop-opacity="1"></stop><stop offset="80%" stop-color="#ff7c71" stop-opacity="1"></stop></linearGradient></defs><defs><linearGradient id="grad1_1" x1="33.3%" y1="100%" x2="100%" y2="0%"><stop offset="20%" stop-color="#ff7c71" stop-opacity="1"></stop><stop offset="80%" stop-color="#a8507d" stop-opacity="1"></stop></linearGradient></defs><defs><linearGradient id="grad1_2" x1="33.3%" y1="100%" x2="100%" y2="0%"><stop offset="20%" stop-color="#43365e" stop-opacity="1"></stop><stop offset="80%" stop-color="#a8507d" stop-opacity="1"></stop></linearGradient></defs><defs><linearGradient id="grad1_3" x1="33.3%" y1="100%" x2="100%" y2="0%"><stop offset="20%" stop-color="#43365e" stop-opacity="1"></stop><stop offset="80%" stop-color="#001220" stop-opacity="1"></stop></linearGradient></defs><defs><linearGradient id="grad2_0" x1="0%" y1="100%" x2="66.7%" y2="0%"><stop offset="20%" stop-color="#ff7c71" stop-opacity="1"></stop><stop offset="80%" stop-color="#ff7c71" stop-opacity="1"></stop></linearGradient></defs><defs><linearGradient id="grad2_1" x1="0%" y1="100%" x2="66.7%" y2="0%"><stop offset="20%" stop-color="#a8507d" stop-opacity="1"></stop><stop offset="80%" stop-color="#ff7c71" stop-opacity="1"></stop></linearGradient></defs><defs><linearGradient id="grad2_2" x1="0%" y1="100%" x2="66.7%" y2="0%"><stop offset="20%" stop-color="#a8507d" stop-opacity="1"></stop><stop offset="80%" stop-color="#43365e" stop-opacity="1"></stop></linearGradient></defs><defs><linearGradient id="grad2_3" x1="0%" y1="100%" x2="66.7%" y2="0%"><stop offset="20%" stop-color="#001220" stop-opacity="1"></stop><stop offset="80%" stop-color="#43365e" stop-opacity="1"></stop></linearGradient></defs><g transform="translate(900, 600)"><path d="M-351 0C-339.9 -32.9 -328.7 -65.7 -329.1 -106.9C-329.4 -148.1 -341.3 -197.7 -328.2 -238.4C-315.1 -279.1 -277 -310.9 -235.7 -324.4C-194.4 -337.9 -149.8 -333 -110 -338.6C-70.2 -344.1 -35.1 -360.1 0 -376L0 0Z" fill="#1b2540"></path><path d="M-263.2 0C-254.9 -24.6 -246.5 -49.3 -246.8 -80.2C-247.1 -111.1 -255.9 -148.3 -246.1 -178.8C-236.3 -209.3 -207.8 -233.2 -176.8 -243.3C-145.8 -253.4 -112.4 -249.8 -82.5 -253.9C-52.6 -258.1 -26.3 -270 0 -282L0 0Z" fill="#744373"></path><path d="M-175.5 0C-169.9 -16.4 -164.4 -32.9 -164.5 -53.5C-164.7 -74.1 -170.6 -98.9 -164.1 -119.2C-157.5 -139.6 -138.5 -155.5 -117.9 -162.2C-97.2 -168.9 -74.9 -166.5 -55 -169.3C-35.1 -172.1 -17.5 -180 0 -188L0 0Z" fill="#d8627c"></path><path d="M-87.7 0C-85 -8.2 -82.2 -16.4 -82.3 -26.7C-82.4 -37 -85.3 -49.4 -82 -59.6C-78.8 -69.8 -69.3 -77.7 -58.9 -81.1C-48.6 -84.5 -37.5 -83.3 -27.5 -84.6C-17.5 -86 -8.8 -90 0 -94L0 0Z" fill="#ff7c71"></path></g><g transform="translate(0, 0)"><path d="M377 0C380.3 43.1 383.6 86.3 365.2 118.7C346.9 151 306.9 172.7 283.2 205.7C259.4 238.8 252 283.3 227.5 313.1C202.9 342.9 161.3 357.9 120.5 370.9C79.8 383.9 39.9 394.8 0 405.6L0 0Z" fill="#1b2540"></path><path d="M282.8 0C285.2 32.4 287.7 64.7 273.9 89C260.1 113.3 230.1 129.5 212.4 154.3C194.6 179.1 189 212.5 170.6 234.8C152.2 257.2 121 268.5 90.4 278.2C59.8 287.9 29.9 296.1 0 304.2L0 0Z" fill="#744373"></path><path d="M188.5 0C190.1 21.6 191.8 43.1 182.6 59.3C173.4 75.5 153.4 86.3 141.6 102.9C129.7 119.4 126 141.7 113.7 156.5C101.5 171.4 80.6 179 60.3 185.5C39.9 191.9 19.9 197.4 0 202.8L0 0Z" fill="#d8627c"></path><path d="M94.3 0C95.1 10.8 95.9 21.6 91.3 29.7C86.7 37.8 76.7 43.2 70.8 51.4C64.9 59.7 63 70.8 56.9 78.3C50.7 85.7 40.3 89.5 30.1 92.7C19.9 96 10 98.7 0 101.4L0 0Z" fill="#ff7c71"></path></g></svg>