<svg id="visual" viewBox="0 0 900 600" width="900" height="600" xmlns="http://www.w3.org/2000/svg" xmlns:xlink="http://www.w3.org/1999/xlink" version="1.1"><rect x="0" y="0" width="900" height="600" fill="#f9f9f9"></rect><defs><linearGradient id="grad1_0" x1="33.3%" y1="0%" x2="100%" y2="100%"><stop offset="20%" stop-color="#ff7c71" stop-opacity="1"></stop><stop offset="80%" stop-color="#ff7c71" stop-opacity="1"></stop></linearGradient></defs><defs><linearGradient id="grad1_1" x1="33.3%" y1="0%" x2="100%" y2="100%"><stop offset="20%" stop-color="#ff7c71" stop-opacity="1"></stop><stop offset="80%" stop-color="#ffa79c" stop-opacity="1"></stop></linearGradient></defs><defs><linearGradient id="grad1_2" x1="33.3%" y1="0%" x2="100%" y2="100%"><stop offset="20%" stop-color="#ffd1ca" stop-opacity="1"></stop><stop offset="80%" stop-color="#ffa79c" stop-opacity="1"></stop></linearGradient></defs><defs><linearGradient id="grad1_3" x1="33.3%" y1="0%" x2="100%" y2="100%"><stop offset="20%" stop-color="#ffd1ca" stop-opacity="1"></stop><stop offset="80%" stop-color="#f9f9f9" stop-opacity="1"></stop></linearGradient></defs><defs><linearGradient id="grad2_0" x1="0%" y1="0%" x2="66.7%" y2="100%"><stop offset="20%" stop-color="#ff7c71" stop-opacity="1"></stop><stop offset="80%" stop-color="#ff7c71" stop-opacity="1"></stop></linearGradient></defs><defs><linearGradient id="grad2_1" x1="0%" y1="0%" x2="66.7%" y2="100%"><stop offset="20%" stop-color="#ffa79c" stop-opacity="1"></stop><stop offset="80%" stop-color="#ff7c71" stop-opacity="1"></stop></linearGradient></defs><defs><linearGradient id="grad2_2" x1="0%" y1="0%" x2="66.7%" y2="100%"><stop offset="20%" stop-color="#ffa79c" stop-opacity="1"></stop><stop offset="80%" stop-color="#ffd1ca" stop-opacity="1"></stop></linearGradient></defs><defs><linearGradient id="grad2_3" x1="0%" y1="0%" x2="66.7%" y2="100%"><stop offset="20%" stop-color="#f9f9f9" stop-opacity="1"></stop><stop offset="80%" stop-color="#ffd1ca" stop-opacity="1"></stop></linearGradient></defs><g transform="translate(900, 0)"><path d="M0 459.7C-45.9 444.6 -91.9 429.4 -133.5 410.9C-175.1 392.3 -212.4 370.4 -252.2 347.1C-291.9 323.8 -334.1 299.1 -361.6 262.7C-389.1 226.4 -401.9 178.3 -408 132.6C-414.1 86.8 -413.6 43.4 -413 0L0 0Z" fill="#fee5e1"></path><path d="M0 344.8C-34.5 333.4 -68.9 322.1 -100.1 308.1C-131.3 294.2 -159.3 277.8 -189.1 260.3C-218.9 242.8 -250.6 224.3 -271.2 197.1C-291.8 169.8 -301.4 133.7 -306 99.4C-310.6 65.1 -310.2 32.6 -309.7 0L0 0Z" fill="#ffbcb3"></path><path d="M0 229.9C-23 222.3 -45.9 214.7 -66.7 205.4C-87.6 196.2 -106.2 185.2 -126.1 173.5C-146 161.9 -167.1 149.6 -180.8 131.4C-194.6 113.2 -200.9 89.2 -204 66.3C-207.1 43.4 -206.8 21.7 -206.5 0L0 0Z" fill="#ff9286"></path><path d="M0 114.9C-11.5 111.1 -23 107.4 -33.4 102.7C-43.8 98.1 -53.1 92.6 -63 86.8C-73 80.9 -83.5 74.8 -90.4 65.7C-97.3 56.6 -100.5 44.6 -102 33.1C-103.5 21.7 -103.4 10.9 -103.2 0L0 0Z" fill="#ff7c71"></path></g><g transform="translate(0, 600)"><path d="M0 -427C40.4 -413.4 80.8 -399.7 128.2 -394.7C175.7 -389.6 230.3 -393.2 270.2 -371.9C310.1 -350.7 335.3 -304.6 361.6 -262.7C388 -220.8 415.4 -183.1 430.8 -140C446.2 -96.9 449.6 -48.4 453 0L0 0Z" fill="#fee5e1"></path><path d="M0 -320.2C30.3 -310 60.6 -299.8 96.2 -296C131.8 -292.2 172.7 -294.9 202.7 -278.9C232.6 -263 251.5 -228.5 271.2 -197.1C291 -165.6 311.6 -137.3 323.1 -105C334.7 -72.7 337.2 -36.3 339.8 0L0 0Z" fill="#ffbcb3"></path><path d="M0 -213.5C20.2 -206.7 40.4 -199.9 64.1 -197.3C87.9 -194.8 115.2 -196.6 135.1 -186C155.1 -175.3 167.7 -152.3 180.8 -131.4C194 -110.4 207.7 -91.5 215.4 -70C223.1 -48.4 224.8 -24.2 226.5 0L0 0Z" fill="#ff9286"></path><path d="M0 -106.7C10.1 -103.3 20.2 -99.9 32.1 -98.7C43.9 -97.4 57.6 -98.3 67.6 -93C77.5 -87.7 83.8 -76.2 90.4 -65.7C97 -55.2 103.9 -45.8 107.7 -35C111.6 -24.2 112.4 -12.1 113.3 0L0 0Z" fill="#ff7c71"></path></g></svg>